{
	"asset":{
		"version":"2.0",
		"generator":"Houdini GLTF 2.0 Exporter"
	},
	"accessors":[
		{
			"bufferView":0,
			"componentType":5123,
			"count":11040,
			"type":"SCALAR",
			"min":[0
			],
			"max":[2315
			]
		},
		{
			"bufferView":1,
			"componentType":5126,
			"count":2316,
			"type":"VEC3",
			"min":[0,0,0
			],
			"max":[1,0,0
			]
		},
		{
			"bufferView":2,
			"componentType":5126,
			"count":2316,
			"type":"VEC3",
			"min":[-231.731842,-9.94515705,-9.99664211
			],
			"max":[241.124725,9.94534111,256.018616
			]
		},
		{
			"bufferView":3,
			"componentType":5126,
			"count":2316,
			"type":"SCALAR",
			"min":[0
			],
			"max":[1
			]
		},
		{
			"bufferView":4,
			"componentType":5126,
			"count":2316,
			"type":"VEC3",
			"min":[0,0.000409430504,0
			],
			"max":[1,1,1.1073333
			]
		},
		{
			"bufferView":5,
			"componentType":5126,
			"count":2316,
			"type":"VEC3",
			"min":[-0.999999821,-2.92421618e-07,-0.999948978
			],
			"max":[0.999996424,2.82097176e-07,0.99983716
			]
		},
		{
			"bufferView":6,
			"componentType":5126,
			"count":2316,
			"type":"VEC3",
			"min":[-0.999948919,-0.995374322,-0.999996424
			],
			"max":[0.99983722,1,0.999999881
			]
		},
		{
			"bufferView":7,
			"componentType":5126,
			"count":2316,
			"type":"VEC2",
			"min":[0,-17
			],
			"max":[1,1
			]
		},
		{
			"bufferView":8,
			"componentType":5126,
			"count":2316,
			"type":"VEC4",
			"min":[-0.99531126,-0.97814244,-0.994642913,1
			],
			"max":[1,1,0.994642854,1
			]
		}
	],
	"buffers":[
		{
			"uri":"output_data.bin",
			"byteLength":225888,
			"name":"main_buffer"
		}
	],
	"bufferViews":[
		{
			"buffer":0,
			"byteLength":22080,
			"target":34963
		},
		{
			"buffer":0,
			"byteOffset":22080,
			"byteLength":27792,
			"target":34962
		},
		{
			"buffer":0,
			"byteOffset":49872,
			"byteLength":27792,
			"target":34962
		},
		{
			"buffer":0,
			"byteOffset":77664,
			"byteLength":9264,
			"target":34962
		},
		{
			"buffer":0,
			"byteOffset":86928,
			"byteLength":27792,
			"target":34962
		},
		{
			"buffer":0,
			"byteOffset":114720,
			"byteLength":27792,
			"target":34962
		},
		{
			"buffer":0,
			"byteOffset":142512,
			"byteLength":27792,
			"target":34962
		},
		{
			"buffer":0,
			"byteOffset":170304,
			"byteLength":18528,
			"target":34962
		},
		{
			"buffer":0,
			"byteOffset":188832,
			"byteLength":37056,
			"target":34962
		}
	],
	"nodes":[
		{
			"name":"default_track",
			"mesh":0
		}
	],
	"meshes":[
		{
			"primitives":[
				{
					"attributes":{
						"TEXCOORD_0":7,
						"NORMAL":6,
						"_path_direction":5,
						"COLOR_0":4,
						"_single_enemy_frequency":3,
						"POSITION":2,
						"TANGENT":8,
						"_enemy_frequency":1
					},
					"indices":0,
					"material":0
				}
			],
			"name":"quickmaterial1"
		}
	],
	"materials":[
		{
			"name":"principledshader",
			"pbrMetallicRoughness":{
				"metallicFactor":0,
				"roughnessFactor":0.300000012
			}
		}
	],
	"scenes":[
		{
			"nodes":[0
			]
		}
	],
	"scene":0
}
