{
	"asset":{
		"version":"2.0",
		"generator":"Houdini GLTF 2.0 Exporter"
	},
	"accessors":[
		{
			"bufferView":0,
			"componentType":5123,
			"count":12288,
			"type":"SCALAR",
			"min":[0
			],
			"max":[2575
			]
		},
		{
			"bufferView":1,
			"componentType":5126,
			"count":2576,
			"type":"VEC3",
			"min":[-0.999000847,0,-0.99999994
			],
			"max":[0.999999404,0,0.999994934
			]
		},
		{
			"bufferView":2,
			"componentType":5126,
			"count":2576,
			"type":"VEC3",
			"min":[0.946333349,0.946333349,1
			],
			"max":[1,1,1.1073333
			]
		},
		{
			"bufferView":3,
			"componentType":5126,
			"count":2576,
			"type":"VEC3",
			"min":[0,0,0
			],
			"max":[1,0,0
			]
		},
		{
			"bufferView":4,
			"componentType":5126,
			"count":2576,
			"type":"VEC3",
			"min":[-12.0187645,-9.94521904,-172.016678
			],
			"max":[259.970306,9.94521904,320.357788
			]
		},
		{
			"bufferView":5,
			"componentType":5126,
			"count":2576,
			"type":"SCALAR",
			"min":[0
			],
			"max":[1
			]
		},
		{
			"bufferView":6,
			"componentType":5125,
			"count":2576,
			"type":"SCALAR",
			"min":[0
			],
			"max":[127
			]
		},
		{
			"bufferView":7,
			"componentType":5126,
			"count":2576,
			"type":"VEC4",
			"min":[-0.994908631,-1,-0.87181288,1
			],
			"max":[1,0.978206694,0.87181294,1
			]
		},
		{
			"bufferView":8,
			"componentType":5126,
			"count":2576,
			"type":"VEC2",
			"min":[0,-20
			],
			"max":[1,1
			]
		},
		{
			"bufferView":9,
			"componentType":5126,
			"count":2576,
			"type":"VEC3",
			"min":[-0.999994993,-0.996833801,-0.99895066
			],
			"max":[0.99999994,1,0.999999464
			]
		}
	],
	"buffers":[
		{
			"uri":"output2_data.bin",
			"byteLength":261568,
			"name":"main_buffer"
		}
	],
	"bufferViews":[
		{
			"buffer":0,
			"byteLength":24576,
			"target":34963
		},
		{
			"buffer":0,
			"byteOffset":24576,
			"byteLength":30912,
			"target":34962
		},
		{
			"buffer":0,
			"byteOffset":55488,
			"byteLength":30912,
			"target":34962
		},
		{
			"buffer":0,
			"byteOffset":86400,
			"byteLength":30912,
			"target":34962
		},
		{
			"buffer":0,
			"byteOffset":117312,
			"byteLength":30912,
			"target":34962
		},
		{
			"buffer":0,
			"byteOffset":148224,
			"byteLength":10304,
			"target":34962
		},
		{
			"buffer":0,
			"byteOffset":158528,
			"byteLength":10304,
			"target":34962
		},
		{
			"buffer":0,
			"byteOffset":168832,
			"byteLength":41216,
			"target":34962
		},
		{
			"buffer":0,
			"byteOffset":210048,
			"byteLength":20608,
			"target":34962
		},
		{
			"buffer":0,
			"byteOffset":230656,
			"byteLength":30912,
			"target":34962
		}
	],
	"nodes":[
		{
			"name":"default_track",
			"mesh":0
		}
	],
	"meshes":[
		{
			"primitives":[
				{
					"attributes":{
						"NORMAL":9,
						"TEXCOORD_0":8,
						"_path_hint_id":6,
						"_single_enemy_frequency":5,
						"POSITION":4,
						"TANGENT":7,
						"_enemy_frequency":3,
						"COLOR_0":2,
						"_path_direction":1
					},
					"indices":0
				}
			],
			"name":"quickmaterial1"
		}
	],
	"scenes":[
		{
			"nodes":[0
			]
		}
	],
	"scene":0
}
